# xmcd
#
# Track frame offsets:
#	150
#	19567
#	41534
#	53494
#	68456
#	89588
#	110292
#	131665
#	152517
#	166105
#	182747
#	208787
#	225373
#	240261
#	271743
#
# Disc length: 3728 seconds
#
# Revision: 1
# Processed by: cddbd v1.5.1PL0 Copyright (c) Steve Scherf et al.
# Submitted via: EasyCDDAExtractor 8.2.0.1
#
DISCID=ac0e8e0f
DTITLE=Various Artist - Piazzolla-Ferrer Songbook
DYEAR=1970
DGENRE=Tango
TTITLE0=Piazzolla-Ferrer - Balada Para Un Loco
TTITLE1=Piazzolla-Ferrer - Paraguas De Buenos Aires
TTITLE2=Piazzolla-Ferrer - Chiquilín De Bachín (Ferrer)
TTITLE3=Piazzolla-Goyeneche - Chiquilín De Bachín (Goyeneche)
TTITLE4=Piazzolla-Ferrer - Fábula Para Gardel
TTITLE5=Piazzolla-Ferrer - Las Ciudades
TTITLE6=Piazzolla-Ferrer - Canción De Las Venusinas
TTITLE7=Piazzolla-Ferrer - No Quiero Otro
TTITLE8=Piazzolla-Ferrer - Balada Para Él
TTITLE9=Piazzolla-Ferrer - El Gordo Triste
TTITLE10=Piazzolla-Ferrer - Preludio Para La Cruz Del Sur
TTITLE11=Piazzolla-Ferrer - La Primera Palabra
TTITLE12=Piazzolla-Ferrer - Balada Para Mi Muerte
TTITLE13=Piazzolla-Ferrer - Balada Para Un Loco (Goyeneche)
TTITLE14=Piazzolla-Ferrer - Data
EXTD=
EXTT0=
EXTT1=
EXTT2=
EXTT3=
EXTT4=
EXTT5=
EXTT6=
EXTT7=
EXTT8=
EXTT9=
EXTT10=
EXTT11=
EXTT12=
EXTT13=
EXTT14=
PLAYORDER=
